<?xml version="1.0" standalone="no"?>
<!DOCTYPE svg PUBLIC "-//W3C//DTD SVG 20010904//EN"
 "http://www.w3.org/TR/2001/REC-SVG-20010904/DTD/svg10.dtd">
<svg version="1.0" xmlns="http://www.w3.org/2000/svg"
 width="333.000000pt" height="333.000000pt" viewBox="0 0 333.000000 333.000000"
 preserveAspectRatio="xMidYMid meet">
<metadata>
Created by potrace 1.14, written by Peter Selinger 2001-2017
</metadata>
<g transform="translate(0.000000,333.000000) scale(0.100000,-0.100000)"
fill="#000000" stroke="none">
<path d="M1103 2224 c-36 -15 -40 -23 -21 -42 9 -9 13 -79 13 -262 0 -137 4
-252 8 -256 4 -4 7 -3 7 2 1 30 17 35 51 15 129 -75 279 15 281 169 1 137
-116 209 -244 152 l-48 -21 0 130 c0 71 -3 129 -7 128 -5 0 -23 -7 -40 -15z
m214 -246 c51 -36 77 -111 67 -197 -11 -96 -83 -138 -165 -96 -54 28 -69 68
-69 178 l0 97 33 20 c42 26 93 25 134 -2z"/>
<path d="M2216 2222 c-34 -16 -37 -19 -22 -31 13 -11 16 -32 16 -103 0 -82 -2
-89 -17 -83 -98 40 -205 6 -250 -78 -27 -50 -23 -154 7 -198 32 -45 47 -57 95
-70 48 -13 103 2 137 38 l23 25 5 -29 c5 -25 10 -28 50 -31 43 -3 44 -3 27 16
-15 17 -17 48 -17 290 0 150 -3 272 -7 272 -5 0 -25 -8 -47 -18z m-46 -250
l40 -39 0 -101 0 -100 -34 -21 c-80 -50 -166 -5 -190 99 -19 87 5 169 57 190
49 20 85 11 127 -28z"/>
<path d="M3183 2224 c-34 -14 -42 -29 -21 -36 7 -3 12 -37 13 -96 1 -81 0 -92
-14 -86 -104 43 -230 -7 -262 -104 -50 -152 72 -292 204 -234 24 11 48 25 51
31 8 12 27 15 25 4 -6 -35 2 -43 42 -43 37 0 40 2 28 17 -11 12 -14 73 -16
277 -1 144 -2 267 -2 274 -1 15 -7 14 -48 -4z m-66 -234 c48 -29 60 -62 57
-160 -1 -47 -2 -91 -3 -97 -2 -18 -55 -43 -91 -43 -74 0 -130 68 -136 165 -6
122 82 191 173 135z"/>
<path d="M2362 2138 c-25 -25 -6 -68 30 -68 26 0 45 44 28 65 -15 18 -41 20
-58 3z"/>
<path d="M180 2020 c-45 -8 -68 -21 -103 -58 -72 -76 -65 -214 14 -272 77 -55
160 -47 235 22 49 45 53 65 4 25 -53 -45 -141 -48 -193 -7 -34 27 -57 80 -57
130 l0 41 83 -1 c45 -1 108 -1 141 -1 l58 1 -6 28 c-8 32 -68 92 -93 93 -10 0
-25 2 -33 3 -8 1 -31 0 -50 -4z m60 -25 c25 -13 60 -60 60 -80 0 -3 -49 -5
-109 -5 -105 0 -109 1 -104 21 3 11 19 33 35 50 34 33 72 38 118 14z"/>
<path d="M610 2020 c-14 -4 -44 -17 -67 -28 -43 -22 -53 -20 -48 11 4 21 -16
22 -56 2 -28 -15 -29 -17 -14 -38 21 -30 21 -240 1 -279 l-15 -28 55 0 c48 0
72 12 43 22 -7 2 -11 52 -12 137 l-2 133 45 24 c57 31 94 31 125 -1 27 -26 29
-39 27 -194 0 -46 -5 -88 -11 -94 -21 -21 -11 -27 45 -27 55 0 55 0 40 22 -12
17 -16 50 -16 145 l0 122 30 21 c64 46 136 34 157 -27 15 -42 10 -247 -6 -267
-12 -14 -7 -16 44 -16 51 0 56 2 44 16 -9 11 -14 54 -15 139 -1 140 -12 177
-56 198 -47 23 -129 5 -180 -40 -15 -13 -20 -12 -45 15 -30 32 -72 44 -113 32z"/>
<path d="M1638 2019 c-77 -21 -137 -92 -143 -170 -8 -113 68 -193 185 -193 64
-1 115 25 157 80 36 47 41 133 11 193 -34 70 -131 112 -210 90z m102 -44 c43
-42 70 -106 70 -169 0 -67 -13 -97 -50 -119 -93 -55 -200 37 -206 177 -3 65
12 105 48 131 34 24 102 14 138 -20z"/>
<path d="M2638 2017 c-52 -12 -114 -75 -129 -129 -37 -140 73 -262 205 -227
44 12 101 52 118 82 8 16 3 14 -26 -8 -106 -81 -244 -15 -249 118 l-2 42 142
3 141 3 -8 30 c-11 38 -26 56 -61 74 -36 19 -86 24 -131 12z m86 -28 c14 -11
33 -34 41 -50 l16 -29 -111 0 c-111 0 -111 0 -105 23 4 12 20 34 36 50 36 33
85 36 123 6z"/>
<path d="M2361 2004 c-30 -14 -32 -16 -16 -28 14 -10 17 -30 17 -117 1 -155
-1 -166 -18 -183 -14 -15 -10 -16 45 -16 l60 0 -15 28 c-10 20 -14 67 -14 180
0 166 2 162 -59 136z"/>
<path d="M2843 1712 c-29 -16 -30 -19 -17 -36 9 -14 14 -47 14 -104 0 -76 -2
-83 -17 -77 -143 59 -285 -42 -270 -189 10 -98 72 -161 157 -160 44 1 101 28
122 58 3 5 8 -4 10 -20 3 -27 7 -29 48 -32 44 -3 44 -3 26 16 -16 18 -17 45
-18 291 0 193 -4 271 -12 271 -6 -1 -25 -9 -43 -18z m-73 -227 c58 -30 70 -58
70 -166 l0 -99 -32 -20 c-18 -11 -51 -20 -72 -20 -121 0 -177 232 -74 304 28
20 71 20 108 1z"/>
<path d="M530 1510 c-38 -11 -90 -39 -90 -50 0 -5 16 0 35 12 65 37 144 11
159 -53 5 -25 2 -27 -94 -58 -61 -20 -109 -43 -125 -58 -53 -54 -25 -145 49
-159 56 -10 116 27 150 93 24 47 19 53 -9 11 -14 -21 -34 -42 -45 -48 -31 -16
-78 -12 -100 10 -54 54 9 132 122 154 13 2 30 7 39 11 14 5 16 -8 17 -100 1
-58 4 -110 7 -115 8 -13 75 -13 75 -1 0 5 -5 11 -11 13 -6 2 -12 53 -13 136
-4 138 -12 169 -55 191 -26 14 -81 20 -111 11z"/>
<path d="M1727 1513 c-15 -3 -45 -21 -67 -42 l-40 -38 0 39 c0 41 -5 44 -47
26 -38 -16 -38 -15 -22 -34 17 -21 18 -269 0 -287 -21 -21 -11 -27 45 -27 55
0 55 0 40 22 -21 30 -22 204 -1 253 17 43 30 48 85 36 30 -7 48 -6 61 2 19 12
26 47 10 47 -5 0 -15 2 -23 3 -7 2 -26 2 -41 0z"/>
<path d="M2296 1505 c-132 -46 -174 -228 -73 -317 51 -46 131 -57 189 -27 30
15 88 70 88 83 0 5 -10 0 -22 -11 -35 -31 -63 -43 -103 -43 -87 0 -146 56
-153 147 l-4 53 123 -1 c68 0 132 0 143 0 15 1 17 6 11 29 -18 74 -115 117
-199 87z m90 -21 c22 -15 54 -61 54 -79 0 -3 -49 -5 -110 -5 l-110 0 11 28
c24 63 101 91 155 56z"/>
<path d="M3118 1510 c-35 -6 -79 -30 -105 -56 -27 -26 -11 -23 29 6 51 38 105
40 142 8 30 -27 45 -76 25 -82 -8 -2 -53 -16 -101 -30 -66 -20 -92 -33 -112
-57 -48 -57 -28 -129 42 -150 52 -15 101 6 141 62 40 55 40 75 0 26 -49 -59
-128 -66 -146 -13 -24 73 9 106 138 141 l47 13 0 -94 c1 -127 4 -134 54 -134
38 0 40 1 25 18 -12 13 -16 44 -18 137 -1 78 -7 130 -16 147 -24 49 -78 71
-145 58z"/>
<path d="M758 1487 c12 -13 47 -82 77 -153 31 -71 60 -139 67 -151 13 -27 5
-61 -23 -97 -21 -26 -25 -27 -78 -21 -48 5 -59 4 -74 -13 -26 -29 -1 -46 56
-38 70 11 116 66 175 206 61 147 110 247 133 269 l23 21 -43 0 c-35 0 -41 -3
-32 -13 11 -14 8 -48 -8 -82 -5 -11 -26 -59 -47 -106 l-38 -86 -54 126 c-29
69 -51 134 -48 144 4 15 -3 17 -52 17 l-55 0 21 -23z"/>
<path d="M1147 1494 c-25 -13 -26 -16 -12 -30 11 -12 15 -40 16 -112 1 -145 9
-171 59 -197 46 -24 135 -3 171 41 13 16 14 15 19 -12 5 -26 9 -29 50 -32 43
-3 44 -3 27 16 -15 16 -17 42 -17 180 0 105 -4 162 -10 162 -6 0 -27 -7 -46
-15 -33 -13 -34 -16 -20 -31 13 -12 16 -39 16 -128 l0 -112 -31 -23 c-44 -33
-98 -38 -129 -13 -24 20 -25 24 -28 171 -4 166 -5 168 -65 135z"/>
<path d="M1828 1486 c10 -13 47 -94 83 -180 44 -106 69 -156 79 -156 11 0 36
50 79 161 35 89 73 170 84 180 21 19 20 19 -23 19 -34 0 -41 -3 -32 -12 7 -7
12 -20 12 -30 0 -16 -72 -216 -89 -246 -8 -15 -113 231 -113 265 0 21 -5 23
-50 23 l-49 0 19 -24z"/>
<path d="M415 1440 c-3 -5 -1 -10 4 -10 6 0 11 5 11 10 0 6 -2 10 -4 10 -3 0
-8 -4 -11 -10z"/>
</g>
</svg>
